<?xml version="1.0" standalone="no"?>
<!DOCTYPE svg PUBLIC "-//W3C//DTD SVG 20010904//EN"
 "http://www.w3.org/TR/2001/REC-SVG-20010904/DTD/svg10.dtd">
<svg version="1.0" xmlns="http://www.w3.org/2000/svg"
 width="502.000000pt" height="502.000000pt" viewBox="0 0 502.000000 502.000000"
 preserveAspectRatio="xMidYMid meet">
<metadata>
Created by potrace 1.11, written by Peter Selinger 2001-2013
</metadata>
<g transform="translate(0.000000,502.000000) scale(0.100000,-0.100000)"
fill="#000000" stroke="none">
<path d="M2304 5001 c-75 -34 -134 -126 -134 -210 0 -17 -4 -31 -8 -31 -4 0
-34 22 -67 50 -66 56 -111 75 -159 66 -58 -11 -93 -64 -102 -155 l-7 -60 -30
25 c-104 87 -210 92 -282 13 -29 -32 -55 -90 -55 -124 0 -7 -28 -9 -75 -7 -61
4 -82 0 -120 -18 -56 -27 -95 -83 -102 -143 l-5 -44 -77 1 c-61 1 -85 -4 -125
-23 -57 -28 -100 -89 -111 -156 -6 -45 -7 -45 -46 -45 -117 0 -207 -115 -181
-230 6 -25 13 -52 17 -61 4 -12 -8 -19 -52 -33 -139 -43 -201 -193 -136 -325
l20 -40 -40 -32 c-74 -60 -88 -154 -38 -254 29 -58 31 -75 8 -75 -27 0 -88
-56 -112 -103 -42 -85 -29 -153 44 -231 l48 -51 -23 -40 c-43 -74 -28 -157 41
-234 21 -23 33 -41 27 -41 -38 0 -111 -105 -112 -160 0 -85 74 -183 161 -212
l44 -15 -3 -51 c-8 -111 64 -237 158 -278 40 -18 40 -18 40 -73 1 -75 26 -127
89 -182 50 -44 51 -46 40 -78 -16 -46 -6 -115 24 -160 34 -51 97 -80 186 -88
64 -5 71 -8 71 -28 0 -12 7 -44 15 -72 25 -85 107 -143 203 -143 28 0 32 -3
32 -26 0 -67 69 -146 146 -166 l44 -12 -1 -71 c0 -38 -4 -153 -8 -255 -8 -196
-4 -237 29 -258 35 -21 140 -42 252 -49 119 -7 149 3 169 55 10 25 -8 264 -30
401 l-8 51 36 10 c48 13 49 13 56 -11 4 -12 25 -42 48 -66 80 -87 196 -91 284
-10 l44 40 32 -30 c38 -36 69 -53 114 -64 69 -15 175 30 212 91 l18 30 28 -30
c40 -42 103 -64 167 -58 29 3 60 8 68 12 13 5 15 -12 11 -130 -3 -152 3 -176
52 -194 16 -5 90 -10 164 -10 127 0 135 1 157 23 30 30 39 115 35 337 -3 138
0 169 13 190 9 14 21 44 27 67 11 40 13 42 37 33 46 -18 117 -11 171 15 73 37
123 117 123 197 0 25 3 28 35 28 37 0 86 20 119 49 39 34 59 93 60 172 l1 76
61 0 c106 -1 183 64 199 169 7 39 7 39 53 40 56 1 108 26 118 56 12 40 7 202
-10 264 -9 34 -16 64 -16 67 0 2 18 7 39 11 48 7 117 59 143 106 30 55 21 147
-20 206 l-33 45 44 49 c83 93 89 215 14 313 l-24 32 38 37 c26 25 43 54 54 90
14 48 14 59 0 105 -8 28 -29 65 -45 83 l-30 32 24 41 c54 95 42 175 -38 253
-53 51 -53 52 -37 80 24 44 20 149 -7 201 -25 48 -82 98 -130 114 -25 8 -32
15 -27 28 32 76 25 154 -20 222 -28 44 -113 89 -165 89 l-37 0 5 55 c9 110
-56 202 -156 224 -28 6 -57 9 -64 7 -58 -18 -65 -17 -66 17 -2 90 -50 170
-125 210 -33 17 -59 22 -118 22 l-76 -1 -12 47 c-36 138 -181 196 -319 128
l-50 -25 -16 58 c-37 134 -173 181 -263 89 l-27 -28 -47 47 c-94 94 -217 123
-303 72 l-39 -23 -25 31 c-51 66 -140 87 -218 51z m123 -58 c20 -9 43 -29 53
-45 16 -26 16 -32 2 -71 -17 -47 -11 -94 14 -104 26 -10 56 30 61 81 7 59 43
88 119 94 69 6 141 -32 196 -103 70 -90 66 -87 88 -75 11 6 20 20 20 31 0 57
68 98 124 75 42 -18 64 -65 74 -158 6 -62 10 -73 27 -76 12 -2 33 11 54 33 46
49 87 69 147 69 59 0 95 -19 125 -67 19 -30 21 -70 8 -141 -7 -34 26 -43 69
-18 55 31 146 31 193 -1 49 -32 81 -100 76 -162 -2 -27 -7 -57 -11 -66 -4 -10
-1 -23 9 -33 15 -15 20 -14 59 9 97 57 213 11 232 -92 8 -43 -9 -104 -36 -128
-44 -40 -9 -86 45 -57 16 8 51 16 76 16 126 0 193 -135 120 -245 -37 -54 -29
-79 27 -79 47 0 110 -36 139 -79 35 -52 32 -134 -6 -191 -16 -24 -27 -50 -24
-57 3 -8 23 -21 44 -30 21 -8 52 -31 69 -49 24 -28 30 -44 30 -81 0 -49 -28
-106 -61 -123 -32 -18 -23 -52 20 -77 41 -24 71 -73 71 -120 0 -60 -37 -101
-130 -143 -29 -13 -22 -39 18 -65 39 -26 74 -78 86 -128 15 -65 -39 -161 -106
-187 -45 -18 -60 -38 -47 -61 5 -11 17 -19 26 -19 25 0 82 -67 89 -105 9 -49
-12 -101 -53 -132 -29 -22 -46 -27 -94 -28 -78 0 -87 -11 -62 -72 29 -66 43
-142 43 -223 0 -82 -13 -100 -72 -100 -34 0 -46 6 -74 36 -20 20 -41 34 -52
32 -23 -4 -27 -45 -7 -68 26 -29 32 -106 10 -146 -33 -62 -118 -81 -189 -43
-33 18 -41 19 -53 6 -11 -11 -12 -28 -5 -89 15 -119 -3 -183 -61 -218 -39 -24
-70 -25 -108 -3 -26 16 -30 16 -45 2 -13 -14 -14 -23 -4 -57 27 -102 -53 -212
-155 -212 -36 0 -95 27 -128 58 -26 24 -28 25 -44 9 -15 -14 -15 -22 -5 -50
35 -97 -25 -188 -125 -187 -31 0 -108 33 -135 56 -32 30 -52 14 -59 -48 -19
-178 -229 -214 -301 -51 -11 24 -27 47 -35 50 -20 8 -43 -22 -43 -57 0 -36
-43 -94 -83 -114 -86 -40 -179 4 -212 101 -15 43 -50 58 -61 26 -32 -93 -85
-143 -153 -143 -65 0 -133 58 -145 125 -4 20 -13 38 -20 41 -7 3 -41 -4 -74
-15 -73 -25 -110 -26 -158 -6 -45 18 -70 71 -52 110 9 21 9 29 -4 42 -15 14
-22 13 -85 -8 -85 -29 -177 -32 -216 -6 -58 38 -82 111 -52 151 19 25 19 31
-1 50 -14 14 -18 14 -44 1 -43 -22 -122 -19 -154 6 -44 34 -58 74 -54 148 l3
66 -95 1 c-122 1 -164 19 -192 81 -24 55 -17 96 23 126 44 32 35 57 -26 73
-38 9 -59 23 -87 54 -44 49 -55 94 -38 155 14 52 10 61 -33 70 -125 26 -199
161 -156 284 15 41 6 51 -63 68 -29 8 -67 25 -85 39 -103 78 -77 220 43 233
71 9 70 29 -9 104 -82 78 -100 124 -71 183 15 31 27 41 59 50 45 12 62 49 28
60 -104 33 -154 81 -161 153 -3 39 0 57 17 84 25 41 86 69 130 61 23 -5 32 -2
40 14 9 16 4 28 -25 66 -72 95 -90 165 -54 223 26 43 54 56 101 49 31 -5 40
-3 49 13 8 16 6 24 -12 41 -12 11 -25 20 -29 20 -5 0 -20 21 -36 47 -49 85
-31 178 47 229 40 27 49 27 195 12 24 -2 31 1 33 18 2 16 -7 28 -30 42 -96 60
-105 213 -14 256 59 28 90 21 139 -29 46 -47 92 -60 103 -30 7 18 -31 82 -57
95 -14 8 -19 22 -19 57 0 57 28 105 74 127 48 23 137 20 196 -5 75 -32 104 -8
60 48 -40 51 -13 134 54 164 51 23 91 24 173 3 35 -9 70 -13 78 -10 19 7 19
40 0 56 -28 23 -19 78 19 116 59 59 141 41 224 -51 l42 -47 33 21 c31 20 32
22 37 112 5 80 8 93 29 110 28 23 51 18 100 -20 80 -62 113 -83 146 -88 51 -8
67 9 59 66 -10 76 34 157 101 187 40 17 50 17 92 -3z"/>
<path d="M1937 4404 c-4 -4 -7 -30 -7 -58 0 -67 -30 -248 -44 -262 -6 -6 -31
-16 -56 -23 -60 -16 -142 -73 -174 -120 -40 -57 -66 -135 -66 -195 l0 -53
-182 -7 c-198 -8 -292 -23 -357 -56 -100 -51 -171 -150 -171 -240 0 -93 68
-187 169 -233 65 -30 228 -30 321 1 35 12 66 20 68 18 2 -2 -4 -44 -14 -92
-39 -207 -10 -527 82 -918 70 -294 246 -466 559 -546 165 -42 448 -50 695 -20
331 41 561 182 743 457 237 355 324 802 203 1041 l-24 47 172 3 c113 1 188 7
221 17 154 44 158 222 9 354 -91 80 -191 110 -442 134 l-133 12 -3 80 c-10
251 -200 388 -397 287 l-60 -31 -8 22 c-4 12 -4 72 0 132 6 83 4 113 -5 123
-19 20 -38 6 -68 -48 l-28 -50 -60 44 c-106 78 -225 112 -365 103 -117 -7
-236 -45 -318 -101 l-64 -44 -74 112 c-70 104 -100 131 -122 110z m715 -148
c77 -17 158 -54 208 -97 l35 -29 -60 -58 c-64 -60 -174 -126 -203 -120 -10 2
-19 16 -22 33 -4 24 -11 31 -34 33 -42 5 -112 -25 -151 -65 -37 -38 -43 -38
-114 16 -45 34 -142 151 -135 163 12 19 111 76 169 97 112 41 203 49 307 27z
m-775 -293 c-12 -101 -30 -441 -24 -456 4 -10 15 -17 25 -17 11 0 86 32 168
71 82 39 194 91 249 115 l99 43 42 -39 c38 -35 94 -60 136 -60 9 0 30 12 47
26 l31 26 93 -52 c52 -28 129 -78 173 -111 123 -92 120 -96 115 159 l-3 213
51 49 c59 57 104 74 177 68 108 -9 176 -101 183 -246 4 -96 -13 -153 -62 -209
-57 -65 -128 -86 -246 -71 -13 2 -28 -4 -34 -14 -9 -13 -4 -24 21 -52 54 -62
42 -161 -28 -219 -88 -74 -259 -50 -391 54 -37 29 -38 31 -23 55 13 19 14 27
4 39 -18 21 -28 19 -67 -15 -84 -74 -264 -131 -423 -134 -82 -1 -100 2 -131
21 -68 43 -80 125 -27 180 26 27 29 35 19 47 -10 12 -27 14 -75 9 -123 -11
-232 44 -290 147 -28 49 -31 64 -31 135 0 93 21 150 76 204 30 30 119 81 143
81 5 0 6 -21 3 -47z m1182 -1239 c54 -45 54 -143 0 -197 -26 -26 -35 -29 -73
-25 -49 6 -86 30 -111 72 l-18 29 32 -24 c30 -22 34 -22 59 -8 22 12 27 22 27
54 0 32 -5 42 -27 54 -25 14 -29 14 -57 -7 -32 -23 -39 -16 -20 20 13 25 84
57 126 58 19 0 43 -10 62 -26z m-974 -15 c20 -19 20 -19 -11 -13 -65 13 -99
-65 -47 -105 30 -24 58 -20 87 12 l19 22 -7 -34 c-7 -41 -22 -60 -55 -72 -52
-20 -131 34 -146 100 -9 42 13 82 55 104 40 20 75 15 105 -14z m414 -369 c45
-22 129 -112 137 -146 14 -53 -10 -62 -146 -55 -79 4 -90 17 -90 112 0 42 3
84 6 93 8 22 47 20 93 -4z"/>
</g>
</svg>
